<?xml version="1.0" encoding="utf-8"?>
<!-- Generator: Adobe Illustrator 22.1.0, SVG Export Plug-In . SVG Version: 6.00 Build 0)  -->
<svg version="1.1" id="Layer_1" xmlns="http://www.w3.org/2000/svg" xmlns:xlink="http://www.w3.org/1999/xlink" x="0px" y="0px"
	 viewBox="0 0 581.7 582" style="enable-background:new 0 0 581.7 582;" xml:space="preserve">
<style type="text/css">
	.st0{fill:#FFFFFF;}
</style>
<g>
	<path class="st0" d="M268.3,241h45.1l11.2-15.4V104.9h-67.4v120.7L268.3,241 M239.3,294.8l13.9-42.8L242,236.6l-114.8-37.3
		l-20.8,64.1l114.8,37.3L239.3,294.8 M281.5,339.1l-36.4-26.5l-18.1,5.9L156,416.2l54.6,39.6l71-97.7L281.5,339.1 M336.6,312.6
		l-36.5,26.5l0,19l70.9,97.7l54.6-39.6l-71-97.7L336.6,312.6 M328.5,252l13.9,42.9l18.1,5.9l114.8-37.3l-20.8-64.1l-114.8,37.3
		L328.5,252"/>
	<path class="st0" d="M290.9,0.1C130.5,0.1,0,130.6,0,291c0,160.4,130.5,290.9,290.9,290.9c160.4,0,290.8-130.5,290.8-290.9
		C581.7,130.6,451.2,0.1,290.9,0.1L290.9,0.1z M290.9,59C418.9,59,522.8,162.8,522.8,291c0,128.1-103.9,232-231.9,232
		c-128.1,0-232-103.9-232-232C58.9,162.8,162.7,59,290.9,59"/>
	<path class="st0" d="M467,355.6l-87.3-28.4l5.8-17.8l87.3,28.4L467,355.6 M355.7,215.5l-15.1-11l53.9-74.2l15.1,11L355.7,215.5
		 M226.9,214.8L173,140.6l15.1-11l53.9,74.2L226.9,214.8 M114.3,354.5l-5.8-17.8l87.3-28.3l5.8,17.8L114.3,354.5 M280.9,476.4h18.7
		v-91.8h-18.7V476.4z"/>
</g>
</svg>
