<?xml version="1.0" encoding="UTF-8" standalone="no"?><!DOCTYPE svg PUBLIC "-//W3C//DTD SVG 1.1//EN" "http://www.w3.org/Graphics/SVG/1.1/DTD/svg11.dtd"><svg width="100%" height="100%" viewBox="0 0 470 110" version="1.1" xmlns="http://www.w3.org/2000/svg" xmlns:xlink="http://www.w3.org/1999/xlink" xml:space="preserve" xmlns:serif="http://www.serif.com/" style="fill-rule:evenodd;clip-rule:evenodd;stroke-linejoin:round;stroke-miterlimit:2;"><g><path d="M57.408,6.688l-0,46.828c-0,5.594 -0.391,9.766 -1.172,12.516c-0.781,3.125 -2.109,5.766 -3.984,7.922c-3.657,4.281 -8.5,6.422 -14.532,6.422c-4.562,-0 -8.828,-1.188 -12.797,-3.563l5.344,-9.328c2.656,1.781 5.141,2.672 7.453,2.672c3.25,-0 5.5,-1.234 6.75,-3.703c1.313,-2.469 1.969,-6.781 1.969,-12.938l0,-46.828l10.969,0Z" style="fill-rule:nonzero;"/><path d="M114.783,61.485l-30.985,0l-8.062,17.578l-11.766,0l35.813,-76.922l34.547,76.922l-11.953,0l-7.594,-17.578Zm-4.453,-10.266l-10.735,-24.609l-11.25,24.609l21.985,0Z" style="fill-rule:nonzero;"/><path d="M159.314,16.954l0,62.109l-10.922,0l0,-62.109l-16.64,-0l-0,-10.266l44.156,0l-0,10.266l-16.594,-0Z" style="fill-rule:nonzero;"/><rect x="206.611" y="46.135" width="27.552" height="14.496" style="fill-rule:nonzero;"/><rect x="272.46" y="6.688" width="10.922" height="72.375" style="fill-rule:nonzero;"/><path d="M298.757,33.407l10.547,-0l-0,4.078c1.937,-2.031 3.656,-3.422 5.156,-4.172c1.531,-0.781 3.344,-1.172 5.437,-1.172c2.782,0 5.688,0.907 8.719,2.719l-4.828,9.656c-2,-1.437 -3.953,-2.156 -5.859,-2.156c-5.75,0 -8.625,4.344 -8.625,13.031l-0,23.672l-10.547,0l-0,-45.656Z" style="fill-rule:nonzero;"/><path d="M331.663,55.907c-0,-6.594 2.359,-12.203 7.078,-16.828c4.719,-4.625 10.469,-6.938 17.25,-6.938c6.813,0 12.594,2.328 17.344,6.985c4.687,4.656 7.031,10.375 7.031,17.156c0,6.844 -2.359,12.578 -7.078,17.203c-4.75,4.594 -10.578,6.891 -17.484,6.891c-6.844,-0 -12.579,-2.344 -17.204,-7.032c-4.625,-4.625 -6.937,-10.437 -6.937,-17.437Zm10.781,0.187c0,4.563 1.219,8.172 3.656,10.829c2.5,2.687 5.797,4.031 9.891,4.031c4.125,-0 7.422,-1.328 9.891,-3.985c2.468,-2.656 3.703,-6.203 3.703,-10.64c-0,-4.438 -1.235,-7.985 -3.703,-10.641c-2.5,-2.687 -5.797,-4.031 -9.891,-4.031c-4.031,-0 -7.297,1.344 -9.797,4.031c-2.5,2.688 -3.75,6.156 -3.75,10.406Z" style="fill-rule:nonzero;"/><path d="M391.522,33.407l10.594,-0l0,4.219c3.688,-3.657 7.844,-5.485 12.469,-5.485c5.312,0 9.453,1.672 12.422,5.016c2.562,2.844 3.843,7.484 3.843,13.922l0,27.984l-10.593,0l-0,-25.5c-0,-4.5 -0.625,-7.609 -1.875,-9.328c-1.219,-1.75 -3.438,-2.625 -6.657,-2.625c-3.5,0 -5.984,1.156 -7.453,3.469c-1.437,2.281 -2.156,6.265 -2.156,11.953l0,22.031l-10.594,0l0,-45.656Z" style="fill-rule:nonzero;"/></g><path d="M325.347,107.691c4.376,0.115 8.744,0.171 13.087,0.168c1.793,-0.002 3.249,-1.459 3.247,-3.253c-0.001,-1.793 -1.458,-3.249 -3.252,-3.247c-4.284,0.002 -8.594,-0.052 -12.911,-0.166c-1.793,-0.047 -3.287,1.371 -3.334,3.164c-0.047,1.793 1.37,3.287 3.163,3.334Zm26.174,-0.021c4.417,-0.125 8.785,-0.312 13.084,-0.56c1.79,-0.104 3.16,-1.642 3.057,-3.432c-0.104,-1.791 -1.641,-3.161 -3.432,-3.058c-4.236,0.245 -8.541,0.429 -12.893,0.553c-1.793,0.05 -3.207,1.547 -3.156,3.34c0.051,1.793 1.547,3.208 3.34,3.157Zm-239.333,-0.103c4.348,0.096 8.724,0.121 13.105,0.074c1.794,-0.019 3.234,-1.49 3.215,-3.284c-0.019,-1.794 -1.491,-3.234 -3.284,-3.215c-4.31,0.046 -8.615,0.021 -12.893,-0.074c-1.793,-0.039 -3.281,1.385 -3.321,3.178c-0.04,1.793 1.384,3.281 3.178,3.321Zm26.208,-0.283c4.386,-0.193 8.756,-0.461 13.089,-0.805c1.788,-0.141 3.125,-1.708 2.983,-3.496c-0.142,-1.788 -1.709,-3.125 -3.497,-2.983c-4.257,0.338 -8.551,0.601 -12.861,0.79c-1.792,0.079 -3.183,1.598 -3.104,3.39c0.079,1.792 1.598,3.183 3.39,3.104Zm160.812,-0.995c4.33,0.354 8.69,0.648 13.062,0.881c1.791,0.096 3.323,-1.28 3.419,-3.071c0.096,-1.792 -1.281,-3.323 -3.072,-3.419c-4.31,-0.231 -8.609,-0.52 -12.879,-0.87c-1.787,-0.146 -3.358,1.187 -3.504,2.974c-0.146,1.788 1.186,3.358 2.974,3.505Zm-213.198,-0.184c4.292,0.391 8.66,0.71 13.08,0.955c1.791,0.1 3.325,-1.274 3.425,-3.065c0.099,-1.791 -1.274,-3.325 -3.065,-3.425c-4.342,-0.241 -8.633,-0.554 -12.85,-0.938c-1.787,-0.163 -3.369,1.155 -3.532,2.942c-0.162,1.786 1.156,3.368 2.942,3.531Zm291.664,0.041c4.462,-0.403 8.819,-0.876 13.045,-1.419c1.779,-0.228 3.038,-1.858 2.809,-3.637c-0.228,-1.779 -1.858,-3.038 -3.637,-2.81c-4.147,0.533 -8.423,0.997 -12.802,1.393c-1.786,0.161 -3.106,1.743 -2.944,3.529c0.161,1.787 1.743,3.106 3.529,2.944Zm-213.128,-0.951c4.41,-0.52 8.756,-1.125 13.014,-1.816c1.77,-0.287 2.974,-1.958 2.687,-3.729c-0.287,-1.77 -1.958,-2.974 -3.729,-2.687c-4.166,0.676 -8.418,1.268 -12.734,1.777c-1.782,0.21 -3.057,1.827 -2.847,3.609c0.211,1.781 1.827,3.057 3.609,2.846Zm108.624,-1.849c4.267,0.625 8.608,1.185 13.001,1.679c1.783,0.201 3.392,-1.084 3.593,-2.866c0.2,-1.783 -1.084,-3.393 -2.867,-3.593c-4.319,-0.486 -8.587,-1.036 -12.783,-1.652c-1.775,-0.26 -3.427,0.97 -3.688,2.744c-0.26,1.775 0.97,3.427 2.744,3.688Zm-213.203,-0.675c4.195,0.745 8.537,1.41 12.996,1.993c1.779,0.233 3.411,-1.023 3.644,-2.801c0.232,-1.779 -1.023,-3.412 -2.802,-3.644c-4.358,-0.57 -8.602,-1.22 -12.701,-1.947c-1.767,-0.314 -3.455,0.865 -3.769,2.631c-0.313,1.767 0.866,3.455 2.632,3.768Zm343.753,0.092c4.535,-0.797 8.857,-1.685 12.927,-2.662c1.744,-0.419 2.82,-2.175 2.402,-3.919c-0.419,-1.744 -2.175,-2.82 -3.919,-2.402c-3.947,0.948 -8.138,1.808 -12.535,2.581c-1.767,0.311 -2.949,1.997 -2.638,3.764c0.31,1.766 1.997,2.949 3.763,2.638Zm-156.367,-4.265c4.163,0.977 8.462,1.877 12.87,2.699c1.763,0.328 3.461,-0.836 3.79,-2.6c0.329,-1.763 -0.836,-3.462 -2.599,-3.79c-4.307,-0.803 -8.507,-1.682 -12.575,-2.637c-1.746,-0.41 -3.496,0.674 -3.907,2.421c-0.41,1.746 0.675,3.497 2.421,3.907Zm-56.855,2.451c4.418,-0.951 8.7,-2.006 12.817,-3.168c1.726,-0.487 2.732,-2.284 2.245,-4.011c-0.487,-1.726 -2.284,-2.732 -4.01,-2.245c-3.989,1.126 -8.139,2.148 -12.42,3.069c-1.753,0.378 -2.87,2.108 -2.493,3.862c0.377,1.753 2.108,2.87 3.861,2.493Zm-156.216,-4.464c3.98,1.279 8.254,2.457 12.772,3.528c1.746,0.414 3.499,-0.667 3.913,-2.412c0.413,-1.746 -0.668,-3.499 -2.413,-3.913c-4.346,-1.03 -8.455,-2.161 -12.283,-3.392c-1.708,-0.548 -3.54,0.392 -4.089,2.1c-0.548,1.708 0.392,3.54 2.1,4.089Zm395.15,-0.037c4.725,-1.609 8.906,-3.383 12.45,-5.308c1.576,-0.856 2.161,-2.83 1.305,-4.407c-0.856,-1.576 -2.831,-2.161 -4.407,-1.304c-3.256,1.768 -7.102,3.388 -11.443,4.866c-1.698,0.578 -2.608,2.426 -2.029,4.124c0.578,1.698 2.426,2.607 4.124,2.029Zm-206.966,-5.412c3.826,1.461 7.883,2.823 12.138,4.089c1.719,0.511 3.53,-0.47 4.041,-2.189c0.512,-1.719 -0.469,-3.53 -2.188,-4.042c-2.322,-0.69 -4.582,-1.41 -6.775,-2.162c0.372,-0.86 0.372,-1.873 -0.088,-2.772c-0.816,-1.597 -2.776,-2.231 -4.373,-1.414c-3.569,1.825 -7.44,3.505 -11.566,5.046c-1.68,0.627 -2.535,2.501 -1.907,4.181c0.627,1.681 2.501,2.536 4.182,1.908c2.253,-0.842 4.434,-1.723 6.536,-2.645Zm-212.485,-6.425c3.161,2.539 7.134,4.906 11.802,7.068c1.628,0.754 3.561,0.045 4.315,-1.583c0.754,-1.627 0.045,-3.561 -1.583,-4.315c-4.133,-1.914 -7.664,-3.989 -10.463,-6.237c-1.398,-1.124 -3.446,-0.9 -4.569,0.498c-1.123,1.398 -0.9,3.446 0.498,4.569Zm188.409,-6.486c3.299,2.605 7.143,5.039 11.462,7.297c1.589,0.831 3.555,0.215 4.386,-1.374c0.831,-1.59 0.215,-3.555 -1.375,-4.386c-3.933,-2.057 -7.44,-4.266 -10.444,-6.638c-1.408,-1.112 -3.453,-0.872 -4.565,0.536c-1.112,1.407 -0.871,3.453 0.536,4.565Zm254.618,3.978c1.62,-2.236 2.627,-4.599 3.008,-7.066c0.273,-1.773 -0.945,-3.434 -2.718,-3.707c-1.772,-0.273 -3.434,0.945 -3.707,2.717c-0.229,1.487 -0.871,2.896 -1.847,4.244c-1.053,1.452 -0.727,3.486 0.726,4.538c1.452,1.052 3.486,0.727 4.538,-0.726Zm-213.301,-0.897c3.946,-2.987 7.266,-6.24 9.874,-9.752c1.069,-1.44 0.767,-3.477 -0.673,-4.547c-1.44,-1.069 -3.478,-0.767 -4.547,0.673c-2.261,3.046 -5.154,5.852 -8.577,8.442c-1.43,1.083 -1.713,3.123 -0.63,4.553c1.082,1.43 3.122,1.713 4.553,0.631Zm-235.43,-23.591c-3.312,5.298 -4.076,10.294 -2.889,14.912c0.446,1.738 2.219,2.786 3.956,2.34c1.738,-0.447 2.786,-2.219 2.34,-3.957c-0.787,-3.063 -0.091,-6.337 2.105,-9.85c0.951,-1.521 0.488,-3.528 -1.034,-4.479c-1.521,-0.95 -3.527,-0.487 -4.478,1.034Zm180.229,-3.681c0.127,4.971 1.625,9.606 4.332,13.904c0.956,1.517 2.964,1.973 4.482,1.017c1.518,-0.956 1.974,-2.964 1.018,-4.482c-2.067,-3.281 -3.237,-6.811 -3.334,-10.606c-0.047,-1.793 -1.54,-3.212 -3.333,-3.165c-1.793,0.046 -3.211,1.539 -3.165,3.332Zm71.092,4.588c0.342,-1.553 0.569,-3.144 0.676,-4.774c0.216,-3.286 -0.06,-6.513 -0.808,-9.583c-0.424,-1.743 -2.184,-2.813 -3.927,-2.389c-1.742,0.425 -2.813,2.184 -2.388,3.927c0.594,2.441 0.809,5.007 0.637,7.619c-0.086,1.298 -0.266,2.566 -0.538,3.803c-0.386,1.752 0.724,3.487 2.476,3.873c1.752,0.385 3.487,-0.724 3.872,-2.476Zm-230.952,-19.023c-4.287,2.665 -7.922,5.268 -10.95,7.799c-1.376,1.15 -1.56,3.202 -0.41,4.578c1.151,1.376 3.202,1.56 4.578,0.409c2.824,-2.359 6.217,-4.781 10.214,-7.266c1.524,-0.947 1.992,-2.953 1.045,-4.476c-0.948,-1.524 -2.953,-1.992 -4.477,-1.044Zm171.624,-10.943c-4.017,3.055 -7.045,6.892 -9.028,11.303c-0.736,1.636 -0.005,3.561 1.631,4.297c1.636,0.736 3.561,0.005 4.297,-1.631c1.544,-3.434 3.907,-6.416 7.035,-8.795c1.428,-1.085 1.705,-3.126 0.62,-4.554c-1.086,-1.428 -3.127,-1.706 -4.555,-0.62Zm52.393,2.823c-3.092,-3.365 -7.097,-6.119 -11.986,-7.958c-1.679,-0.631 -3.555,0.219 -4.186,1.898c-0.631,1.679 0.219,3.555 1.898,4.186c3.865,1.454 7.044,3.612 9.489,6.272c1.213,1.321 3.271,1.408 4.592,0.194c1.32,-1.214 1.407,-3.272 0.193,-4.592Zm-25.806,-10.451c-0.82,-0.015 -1.654,-0.01 -2.504,0.017c-4.087,0.125 -7.842,0.66 -11.251,1.548c-1.736,0.452 -2.778,2.229 -2.326,3.965c0.452,1.735 2.228,2.778 3.964,2.325c2.973,-0.774 6.249,-1.232 9.813,-1.342c0.743,-0.022 1.472,-0.027 2.189,-0.015c1.794,0.032 3.275,-1.398 3.307,-3.191c0.032,-1.794 -1.398,-3.276 -3.192,-3.307Z" style="fill:#4a79f7;"/><path d="M469.098,41.742c-0.572,-6.945 -6.926,-12.56 -14.615,-12.907c-8.77,-0.347 -16.014,6.02 -16.014,13.949c0,1.968 0.445,3.878 1.271,5.614l0,0.058c0.254,0.521 7.371,12.444 11.375,19.101c1.144,1.91 4.13,1.91 5.274,-0c2.161,-3.589 11.311,-18.985 11.375,-19.101l-0,-0.058c1.016,-2.025 1.525,-4.283 1.334,-6.656Zm-15.314,7.177c-3.686,0 -6.673,-2.72 -6.673,-6.077c0,-3.357 2.987,-6.077 6.673,-6.077c3.685,-0 6.672,2.72 6.672,6.077c-0,3.357 -2.987,6.077 -6.672,6.077Z" style="fill:#4a79f7;fill-rule:nonzero;"/></svg>