<?xml version="1.0" encoding="UTF-8" standalone="no"?><!DOCTYPE svg PUBLIC "-//W3C//DTD SVG 1.1//EN" "http://www.w3.org/Graphics/SVG/1.1/DTD/svg11.dtd"><svg width="100%" height="100%" viewBox="0 0 2917 2917" version="1.1" xmlns="http://www.w3.org/2000/svg" xmlns:xlink="http://www.w3.org/1999/xlink" xml:space="preserve" xmlns:serif="http://www.serif.com/" style="fill-rule:evenodd;clip-rule:evenodd;stroke-linejoin:round;stroke-miterlimit:2;"><path d="M1465.17,1.988c366.888,1.741 729.042,146.154 995.733,398.92c221.109,209.563 374.455,489.484 430.1,789.675c72.034,388.663 -22.241,806.234 -257.045,1126.07c-213.017,290.163 -536.98,497.459 -889.359,567.346c-367.05,72.792 -761.2,-2.079 -1075.5,-206.342c-347.308,-225.712 -591.5,-604.066 -649.42,-1017.47c-52.659,-375.825 48.016,-770.046 275.104,-1073.62c262.096,-350.367 683.141,-574.242 1132.85,-584.225c12.496,-0.275 24.991,-0.375 37.533,-0.354Zm-9.046,113.695c-338.771,1.613 -673.071,135.709 -917.887,367.746c-201.825,191.292 -342.471,445.95 -394.967,719.65c-68.654,357.9 15.267,742.742 230.592,1039.77c195.908,270.229 496.241,464.512 824.583,529.629c338.479,67.121 701.746,-1.883 991.425,-190.146c319.983,-207.962 545.404,-557.021 598.771,-937.925c48.617,-346.933 -44.183,-709.85 -253.542,-989.725c-241.433,-322.771 -629.383,-529.45 -1044.33,-538.662c-11.538,-0.259 -23.071,-0.35 -34.642,-0.334Z" style="fill:#fff;"/><g><path d="M381.861,1722.8l175.114,0l0,-221.947l63.123,-0l114.028,221.947l195.477,0l-143.553,-256.563c64.14,-34.616 106.901,-96.72 106.901,-191.404c-0,-164.934 -122.173,-213.803 -264.708,-213.803l-246.382,0l-0,661.77Zm175.114,-360.41l0,-162.897l59.051,-0c69.231,-0 105.883,18.326 105.883,75.34c-0,57.014 -36.652,87.557 -105.883,87.557l-59.051,-0Z" style="fill:#fff;fill-rule:nonzero;"/><path d="M2053.44,1722.8l175.115,0l-0,-209.73l73.304,-0c138.462,-0 264.708,-70.25 264.708,-232.129c-0,-166.969 -122.173,-219.911 -264.708,-219.911l-248.419,0l0,661.77Zm175.115,-348.193l-0,-175.114l65.159,-0c65.159,-0 101.81,22.398 101.81,81.448c0,59.051 -32.579,93.666 -101.81,93.666l-65.159,0Z" style="fill:#fff;fill-rule:nonzero;"/></g><g><path d="M1951.94,888.893l-1005.68,1005.68l22.729,22.724l1005.68,-1005.68l-22.729,-22.724Z" style="fill:#fff;"/><path d="M1974.67,1894.57l-1005.68,-1005.68l-22.729,22.724l1005.68,1005.68l22.729,-22.724Z" style="fill:#fff;"/></g><g><path d="M913.266,2100.06l0,55.231l-15.447,0l0,-132.814l36.43,0c16.295,0 28.331,3.117 36.114,9.36c7.778,6.237 11.67,15.623 11.67,28.16c-0,17.561 -8.9,29.432 -26.709,35.608l36.068,59.686l-18.259,0l-32.161,-55.231l-27.706,0Zm0,-13.266l21.164,-0c10.904,-0 18.899,-2.166 23.985,-6.497c5.085,-4.325 7.633,-10.821 7.633,-19.483c-0,-8.781 -2.589,-15.112 -7.768,-18.988c-5.178,-3.876 -13.494,-5.814 -24.936,-5.814l-20.078,0l0,50.782Z" style="fill:#fff;fill-rule:nonzero;"/><path d="M1086.87,2155.3l-74.043,0l0,-132.814l74.043,0l-0,13.716l-58.596,0l0,42.792l55.051,-0l-0,13.623l-55.051,-0l0,48.874l58.596,0l-0,13.809Z" style="fill:#fff;fill-rule:nonzero;"/><path d="M1199.79,2155.3l-16.533,-42.244l-53.236,0l-16.352,42.244l-15.623,0l52.508,-133.362l12.987,0l52.239,133.362l-15.99,0Zm-21.349,-56.14l-15.443,-41.154c-2,-5.209 -4.057,-11.597 -6.175,-19.168c-1.334,5.814 -3.241,12.202 -5.727,19.168l-15.623,41.154l42.968,-0Z" style="fill:#fff;fill-rule:nonzero;"/><path d="M1308.99,2119.96c-0,11.69 -4.238,20.807 -12.719,27.344c-8.481,6.543 -19.985,9.814 -34.523,9.814c-15.741,0 -27.855,-2.031 -36.336,-6.088l-0,-14.899c5.452,2.305 11.385,4.119 17.804,5.452c6.424,1.333 12.78,2 19.08,2c10.295,0 18.047,-1.953 23.257,-5.86c5.209,-3.907 7.814,-9.344 7.814,-16.306c-0,-4.604 -0.925,-8.377 -2.776,-11.313c-1.845,-2.935 -4.935,-5.648 -9.261,-8.129c-4.331,-2.486 -10.92,-5.302 -19.762,-8.45c-12.352,-4.418 -21.179,-9.659 -26.482,-15.716c-5.297,-6.057 -7.948,-13.959 -7.948,-23.711c0,-10.233 3.845,-18.377 11.54,-24.434c7.69,-6.057 17.866,-9.086 30.523,-9.086c13.204,0 25.344,2.424 36.429,7.266l-4.816,13.448c-10.962,-4.605 -21.623,-6.905 -31.975,-6.905c-8.181,0 -14.569,1.757 -19.168,5.267c-4.605,3.514 -6.905,8.387 -6.905,14.625c0,4.605 0.848,8.372 2.543,11.313c1.695,2.935 4.558,5.633 8.584,8.083c4.026,2.455 10.191,5.163 18.486,8.129c13.928,4.967 23.515,10.3 28.755,15.99c5.236,5.695 7.856,13.081 7.856,22.166Z" style="fill:#fff;fill-rule:nonzero;"/><path d="M1451.43,2088.7c-0,21.261 -5.375,37.975 -16.13,50.151c-10.749,12.17 -25.69,18.258 -44.827,18.258c-19.567,0 -34.657,-5.979 -45.288,-17.943c-10.631,-11.959 -15.943,-28.843 -15.943,-50.647c-0,-21.618 5.328,-38.383 15.989,-50.28c10.657,-11.902 25.799,-17.851 45.423,-17.851c19.075,0 33.974,6.057 44.693,18.166c10.718,12.114 16.083,28.827 16.083,50.146Zm-105.837,-0c0,17.99 3.83,31.633 11.494,40.926c7.659,9.297 18.786,13.948 33.386,13.948c14.713,0 25.83,-4.636 33.339,-13.902c7.509,-9.266 11.261,-22.92 11.261,-40.972c0,-17.866 -3.737,-31.417 -11.215,-40.652c-7.483,-9.236 -18.548,-13.851 -33.204,-13.851c-14.719,0 -25.908,4.646 -33.567,13.944c-7.664,9.297 -11.494,22.817 -11.494,40.559Z" style="fill:#fff;fill-rule:nonzero;"/><path d="M1584.79,2155.3l-17.623,0l-72.585,-111.465l-0.724,0c0.967,13.081 1.453,25.071 1.453,35.975l-0,75.49l-14.264,0l-0,-132.814l17.442,0l72.405,111.01l0.723,0c-0.119,-1.633 -0.393,-6.889 -0.816,-15.757c-0.424,-8.874 -0.574,-15.22 -0.455,-19.034l-0,-76.219l14.444,0l0,132.814Z" style="fill:#fff;fill-rule:nonzero;"/><path d="M1704.8,2155.3l-16.533,-42.244l-53.236,0l-16.352,42.244l-15.628,0l52.513,-133.362l12.987,0l52.239,133.362l-15.99,0Zm-21.349,-56.14l-15.442,-41.154c-2,-5.209 -4.057,-11.597 -6.181,-19.168c-1.329,5.814 -3.236,12.202 -5.721,19.168l-15.624,41.154l42.968,-0Z" style="fill:#fff;fill-rule:nonzero;"/><path d="M1739.05,2022.48l37.52,0c17.623,0 30.372,2.636 38.243,7.902c7.871,5.272 11.809,13.597 11.809,24.983c0,7.876 -2.196,14.372 -6.584,19.488c-4.393,5.117 -10.796,8.435 -19.215,9.949l0,0.904c20.166,3.452 30.254,14.052 30.254,31.799c0,11.871 -4.015,21.138 -12.041,27.799c-8.021,6.662 -19.241,9.99 -33.655,9.99l-46.331,0l-0,-132.814Zm15.442,56.87l25.437,-0c10.899,-0 18.745,-1.711 23.53,-5.132c4.786,-3.422 7.173,-9.194 7.173,-17.308c0,-7.447 -2.661,-12.822 -7.989,-16.125c-5.334,-3.302 -13.809,-4.951 -25.438,-4.951l-22.713,0l-0,43.516Zm-0,13.08l-0,49.691l27.711,-0c10.719,-0 18.786,-2.073 24.207,-6.223c5.421,-4.144 8.13,-10.641 8.13,-19.483c-0,-8.238 -2.771,-14.295 -8.311,-18.171c-5.54,-3.876 -13.974,-5.814 -25.303,-5.814l-26.434,-0Z" style="fill:#fff;fill-rule:nonzero;"/><path d="M1859.6,2155.3l-0,-132.814l15.442,0l-0,118.824l58.595,0l0,13.99l-74.037,0Z" style="fill:#fff;fill-rule:nonzero;"/><path d="M2030.2,2155.3l-74.038,0l0,-132.814l74.038,0l-0,13.716l-58.596,0l0,42.792l55.05,-0l0,13.623l-55.05,-0l0,48.874l58.596,0l-0,13.809Z" style="fill:#fff;fill-rule:nonzero;"/><path d="M1226.73,2267.9c-0,13.447 -4.59,23.789 -13.763,31.024c-9.173,7.24 -22.3,10.858 -39.38,10.858l-15.629,-0l0,52.233l-15.442,0l0,-132.813l34.43,-0c33.189,-0 49.784,12.899 49.784,38.698Zm-68.772,28.616l13.902,-0c13.685,-0 23.587,-2.207 29.706,-6.631c6.119,-4.419 9.174,-11.504 9.174,-21.256c-0,-8.781 -2.874,-15.324 -8.631,-19.623c-5.752,-4.3 -14.713,-6.45 -26.889,-6.45l-17.262,-0l0,53.96Z" style="fill:#fff;fill-rule:nonzero;"/><path d="M1328.56,2362.02l-74.037,0l-0,-132.813l74.037,-0l0,13.716l-58.595,-0l-0,42.791l55.055,0l0,13.623l-55.055,0l-0,48.874l58.595,0l0,13.809Z" style="fill:#fff;fill-rule:nonzero;"/><path d="M1473.28,2295.43c0,21.261 -5.374,37.975 -16.124,50.151c-10.75,12.171 -25.696,18.259 -44.833,18.259c-19.561,-0 -34.657,-5.98 -45.288,-17.944c-10.625,-11.959 -15.938,-28.843 -15.938,-50.647c0,-21.618 5.328,-38.383 15.985,-50.28c10.662,-11.902 25.799,-17.85 45.422,-17.85c19.08,-0 33.98,6.057 44.698,18.165c10.719,12.114 16.078,28.828 16.078,50.146Zm-105.831,0c-0,17.99 3.829,31.634 11.488,40.926c7.665,9.297 18.791,13.948 33.386,13.948c14.719,0 25.83,-4.635 33.339,-13.902c7.509,-9.266 11.267,-22.92 11.267,-40.972c-0,-17.866 -3.742,-31.417 -11.22,-40.652c-7.478,-9.235 -18.548,-13.85 -33.205,-13.85c-14.714,-0 -25.902,4.646 -33.567,13.943c-7.659,9.297 -11.488,22.817 -11.488,40.559Z" style="fill:#fff;fill-rule:nonzero;"/><path d="M1587.1,2267.9c-0,13.447 -4.584,23.789 -13.763,31.024c-9.173,7.24 -22.3,10.858 -39.38,10.858l-15.623,-0l-0,52.233l-15.443,0l0,-132.813l34.43,-0c33.189,-0 49.779,12.899 49.779,38.698Zm-68.766,28.616l13.897,-0c13.69,-0 23.592,-2.207 29.705,-6.631c6.119,-4.419 9.179,-11.504 9.179,-21.256c-0,-8.781 -2.879,-15.324 -8.631,-19.623c-5.752,-4.3 -14.718,-6.45 -26.889,-6.45l-17.261,-0l-0,53.96Z" style="fill:#fff;fill-rule:nonzero;"/><path d="M1614.9,2362.02l-0,-132.813l15.447,-0l0,118.824l58.596,-0l-0,13.989l-74.043,0Z" style="fill:#fff;fill-rule:nonzero;"/><path d="M1785.51,2362.02l-74.038,0l0,-132.813l74.038,-0l-0,13.716l-58.596,-0l0,42.791l55.056,0l-0,13.623l-55.056,0l0,48.874l58.596,0l-0,13.809Z" style="fill:#fff;fill-rule:nonzero;"/></g><g id="Coffee-mug"><path d="M1477.19,657.948c143.501,-57.97 -26.456,-116.24 58.295,-191.455c-140.793,95.727 25.515,126.87 -58.295,191.455Z" style="fill:#fff;fill-rule:nonzero;"/><path d="M1400.53,635.462c109.79,-44.352 -20.238,-88.937 44.6,-146.483c-107.718,73.241 19.525,97.071 -44.6,146.483Z" style="fill:#fff;fill-rule:nonzero;"/><path d="M1612.86,693.577l0,38.476l38.973,0c34.073,0 61.794,29.417 61.794,65.583l0,75.97c0,65.862 -43.308,118.416 -100.767,125.424l0,51.081c0,21.385 -16.331,38.714 -36.476,38.714l-218.888,-0c-20.15,-0 -36.481,-17.334 -36.481,-38.714l-0,-356.534l291.845,0Zm0,269.085c38.383,-6.878 66.834,-43.515 66.834,-89.056l-0,-75.97c-0,-16.305 -12.502,-29.572 -27.861,-29.572l-38.973,0l0,194.598Z" style="fill:#fff;fill-rule:nonzero;"/></g></svg>