<?xml version="1.0" encoding="UTF-8" standalone="no"?>
<!DOCTYPE svg PUBLIC "-//W3C//DTD SVG 1.1//EN" "http://www.w3.org/Graphics/SVG/1.1/DTD/svg11.dtd">
<svg width="100%" height="100%" viewBox="0 0 80 80" version="1.1" xmlns="http://www.w3.org/2000/svg" xmlns:xlink="http://www.w3.org/1999/xlink" xml:space="preserve" style="fill-rule:evenodd;clip-rule:evenodd;stroke-linejoin:round;stroke-miterlimit:1.41421;">
    <g transform="matrix(1,0,0,1,-0.134351,-0.806108)">
        <path d="M39.773,1.31L0,31.004L0,78.226L79.536,78.226L79.536,31.004L39.773,1.31ZM28.77,22.499C29.937,20.366 31.545,18.76 33.585,17.694C35.62,16.619 37.942,16.078 40.568,16.078C42.782,16.078 44.759,16.513 46.489,17.37C48.218,18.24 49.534,19.464 50.456,21.057C51.356,22.652 51.823,24.391 51.823,26.274C51.823,28.521 51.129,30.553 49.741,32.371C48.001,34.663 45.78,35.807 43.061,35.807C42.329,35.807 41.782,35.685 41.407,35.427C41.042,35.165 40.786,34.795 40.664,34.298C39.642,35.31 38.433,35.818 37.075,35.818C35.61,35.818 34.396,35.311 33.432,34.309C32.466,33.297 31.985,31.948 31.985,30.278C31.985,28.194 32.563,26.312 33.728,24.606C35.144,22.522 36.946,21.476 39.152,21.476C40.723,21.476 41.883,22.077 42.627,23.281L42.958,21.813L46.458,21.813L44.46,31.292C44.335,31.898 44.273,32.278 44.273,32.455C44.273,32.683 44.325,32.835 44.422,32.952C44.521,33.063 44.645,33.117 44.779,33.117C45.215,33.117 45.758,32.869 46.425,32.348C47.326,31.685 48.052,30.774 48.606,29.653C49.16,28.524 49.445,27.354 49.445,26.145C49.445,23.98 48.663,22.168 47.093,20.7C45.52,19.25 43.323,18.515 40.515,18.515C38.122,18.515 36.098,19.002 34.438,19.983C32.778,20.949 31.525,22.326 30.673,24.097C29.834,25.857 29.415,27.704 29.415,29.617C29.415,31.473 29.894,33.169 30.826,34.691C31.771,36.224 33.086,37.332 34.782,38.036C36.478,38.733 38.425,39.082 40.61,39.082C42.707,39.082 44.519,38.789 46.042,38.201C47.564,37.614 48.781,36.744 49.708,35.56L52.515,35.56C51.635,37.352 50.288,38.752 48.466,39.775C46.374,40.938 43.826,41.515 40.822,41.515C37.904,41.515 35.396,41.028 33.28,40.047C31.159,39.061 29.591,37.613 28.55,35.697C27.522,33.779 27.015,31.689 27.015,29.429C27.017,26.952 27.595,24.64 28.77,22.499ZM2.804,31.941L32.148,51.621L2.804,74.333L2.804,31.941ZM5.033,75.844L39.773,48.959L74.502,75.844L5.033,75.844ZM76.729,74.333L47.391,51.621L76.73,31.941L76.73,74.333L76.729,74.333ZM41.205,24.661C41.671,25.192 41.904,25.956 41.904,26.953C41.904,27.844 41.73,28.809 41.391,29.832C41.057,30.868 40.648,31.658 40.182,32.193C39.864,32.568 39.524,32.845 39.19,33.019C38.751,33.268 38.284,33.389 37.78,33.389C37.106,33.395 36.55,33.125 36.089,32.595C35.639,32.064 35.416,31.249 35.416,30.13C35.416,29.291 35.574,28.325 35.903,27.241C36.232,26.153 36.713,25.325 37.356,24.732C38.003,24.144 38.702,23.851 39.456,23.851C40.162,23.856 40.749,24.125 41.205,24.661Z" style="fill:rgb(1,0,2);fill-rule:nonzero;"/>
    </g>
</svg>
