<?xml version="1.0" encoding="UTF-8" standalone="no"?>
<!DOCTYPE svg PUBLIC "-//W3C//DTD SVG 1.1//EN" "http://www.w3.org/Graphics/SVG/1.1/DTD/svg11.dtd">
<svg width="100%" height="100%" viewBox="0 0 94 94" version="1.1" xmlns="http://www.w3.org/2000/svg" xmlns:xlink="http://www.w3.org/1999/xlink" xml:space="preserve" style="fill-rule:evenodd;clip-rule:evenodd;stroke-linejoin:round;stroke-miterlimit:1.41421;">
    <g>
        <path d="M33.896,46.011C33.869,44.672 33.841,43.416 33.812,42.16C33.699,42.131 33.583,42.102 33.466,42.073C33.15,42.89 32.761,43.686 32.53,44.527C32.152,45.924 32.193,45.935 33.896,46.011Z" style="fill-rule:nonzero;"/>
        <path d="M44.977,45.792C45.075,44.563 45.028,43.324 45.045,42.09C44.936,42.064 44.826,42.037 44.715,42.013C44.154,43.593 43.594,45.173 43.029,46.766C44.76,47.287 44.863,47.259 44.977,45.792Z" style="fill-rule:nonzero;"/>
        <path d="M89,0L5,0C2.238,0 0,2.239 0,5L0,89C0,91.761 2.238,94 5,94L89,94C91.762,94 94,91.761 94,89L94,5C94,2.239 91.762,0 89,0ZM25.465,55.729C24.805,55.922 24.594,55.667 24.406,55.047C23.334,51.494 22.209,47.96 21.054,44.273C20.99,44.749 20.911,45.142 20.894,45.537C20.781,47.687 20.697,49.84 20.572,51.989C20.543,52.496 20.49,53.044 20.277,53.486C20.119,53.808 19.707,54.097 19.351,54.207C18.837,54.363 18.244,54.259 17.732,54.413C16.41,54.807 15.703,54.133 15.097,53.101C14.361,51.833 13.568,50.599 12.798,49.353C12.745,49.355 12.693,49.361 12.64,49.366C12.788,50.51 12.915,51.658 13.099,52.796C13.203,53.456 12.939,53.843 12.365,54.086C12.236,54.139 12.121,54.21 11.994,54.259C9.445,55.237 8.951,54.893 8.543,52.227C7.955,48.38 8.102,44.526 8.236,40.667C8.244,40.445 8.494,40.134 8.707,40.037C9.139,39.844 9.617,39.732 10.086,39.656C11.975,39.344 12.465,39.593 13.344,41.267C14.217,42.932 15.076,44.602 15.948,46.27C16.067,46.495 16.208,46.708 16.384,47.002C16.777,45.154 17.044,43.406 17.527,41.717C17.982,40.118 18.627,38.569 19.269,37.029C19.384,36.752 19.89,36.478 20.216,36.476C21.136,36.468 22.112,36.439 22.948,36.741C23.462,36.926 23.952,37.647 24.12,38.223C24.698,40.222 25.153,42.258 25.622,44.287C26.442,47.84 27.233,51.396 28.063,55.053C27.309,55.247 26.381,55.46 25.465,55.729ZM30.359,54.402C28.611,53.287 27.912,51.864 27.941,49.9C27.978,47.591 27.908,45.288 28.548,43.02C29.062,41.197 30.319,40.042 31.657,38.834C32.993,37.633 34.292,38.089 35.743,38.34C37.35,38.618 37.649,39.68 37.718,40.96C37.845,43.2 38.286,45.434 37.745,47.688C37.608,48.257 37.438,48.547 36.843,48.516C35.286,48.43 33.73,48.352 32.056,48.266C31.855,49.77 31.783,51.268 32.656,52.615C33.504,53.922 34.627,54.184 36.105,53.511C37.398,52.923 38.777,53.228 39.837,54.331C37.42,56.057 32.773,55.943 30.359,54.402ZM45.561,55.161C44.831,55.001 44.057,55.012 43.334,54.828C40.689,54.154 39.115,51.853 39.023,49.103C38.933,46.444 39.584,43.943 40.666,41.639C41.437,39.996 42.869,38.649 44.102,37.252C44.327,36.996 45.03,37.001 45.452,37.116C46.368,37.364 47.269,37.7 48.113,38.128C48.427,38.29 48.759,38.822 48.743,39.169C48.671,40.623 48.454,42.068 48.312,43.521C48.15,45.245 48.009,46.972 47.853,48.799C46.277,49.793 44.55,49.18 42.809,48.942C42.252,50.643 43.051,51.839 44.036,52.971C44.849,53.906 45.897,53.949 46.95,53.577C47.585,53.353 48.12,52.87 48.732,52.575C49.003,52.445 49.374,52.411 49.661,52.484C50.351,52.656 50.773,53.105 50.784,53.956C49.146,54.792 47.518,55.584 45.561,55.161ZM60.926,47.484C59.729,47.65 58.531,47.826 57.33,47.978C56.906,48.032 56.549,48.001 56.601,48.659C56.681,49.81 56.622,50.972 56.65,52.128C56.679,53.287 56.742,54.443 56.795,55.708C55.904,55.855 55.053,55.997 54.066,56.161C53.992,54.816 53.933,53.537 53.847,52.261C53.756,50.975 53.642,49.688 53.529,48.294C52.652,48.244 51.845,48.175 51.035,48.159C50.275,48.144 49.738,47.913 49.806,47.041C49.868,46.178 50.422,45.896 51.22,45.943C51.886,45.982 52.558,46.006 53.306,46.039C53.025,43.349 52.709,40.813 52.511,38.27C52.369,36.432 52.299,34.582 52.345,32.742C52.394,30.789 53.232,30.331 55.004,31.128C56.824,31.945 56.733,32.042 56.691,33.993C56.627,36.991 56.808,39.993 56.847,42.994C56.853,43.652 56.656,44.31 56.621,44.973C56.606,45.227 56.797,45.491 56.897,45.75C57.037,45.542 57.276,45.344 57.295,45.125C57.35,44.49 57.766,44.253 58.18,44.57C59.201,45.352 60.125,46.261 61.086,47.12C61.037,47.242 60.98,47.363 60.926,47.484ZM68.76,53.986C68.389,54.381 67.918,54.81 67.42,54.924C66.533,55.132 65.592,55.191 64.676,55.169C63.614,55.144 62.934,54.39 62.733,53.463C62.196,51.041 61.789,48.593 61.379,46.146C61.262,45.444 61.285,44.713 61.313,43.999C61.346,42.984 61.824,42.669 62.793,42.981C63.08,43.076 63.355,43.227 63.637,43.35C65.522,44.18 65.483,44.238 65.5,46.242C65.52,48.291 65.709,50.335 65.836,52.381C65.852,52.609 65.969,52.826 66.074,53.168C68.271,51.292 68.906,48.949 68.898,46.359C68.894,45.754 68.681,45.145 68.717,44.548C68.742,44.115 68.935,43.617 69.226,43.308C69.398,43.123 69.922,43.163 70.247,43.253C70.736,43.387 71.184,43.66 71.65,43.862C72.741,44.328 72.98,45.132 72.939,46.289C72.855,48.649 71.675,50.416 70.228,52.104C69.715,52.711 69.301,53.408 68.76,53.986ZM83.061,50.438C81.739,51.555 80.416,52.686 79.022,53.71C78.498,54.094 77.766,54.195 77.114,54.436C76.686,56.297 76.936,58.981 77.961,63.174C76.898,63.205 75.855,63.276 74.812,63.231C74.633,63.223 74.374,62.744 74.333,62.457C73.945,59.935 73.615,57.403 73.223,54.882C73.159,54.463 72.95,53.986 72.651,53.701C71.761,52.86 71.833,52.223 72.923,51.653C73.128,51.548 73.264,51.196 73.315,50.936C73.772,48.666 74.079,46.36 74.671,44.129C75.322,41.678 76.745,39.662 79.068,38.502C79.693,38.191 80.577,38.251 81.306,38.358C81.995,38.461 82.624,38.937 83.312,39.099C85.187,39.533 85.632,41.025 85.802,42.564C86.135,45.588 85.525,48.359 83.061,50.438Z" style="fill-rule:nonzero;"/>
        <path d="M77.229,50.855C81.026,48.89 82.858,44.76 81.417,41.059C78.416,43.661 77.969,47.264 77.229,50.855Z" style="fill-rule:nonzero;"/>
    </g>
</svg>
